<svg width="15" height="15" viewBox="0 0 15 15" fill="none" xmlns="http://www.w3.org/2000/svg">
<g id="Iconly/Bold/Category">
<g id="Category">
<path id="Category_2" fill-rule="evenodd" clip-rule="evenodd" d="M2.8375 1.25H4.95C5.83125 1.25 6.5375 1.96875 6.5375 2.85063V4.98125C6.5375 5.86875 5.83125 6.58125 4.95 6.58125H2.8375C1.9625 6.58125 1.25 5.86875 1.25 4.98125V2.85063C1.25 1.96875 1.9625 1.25 2.8375 1.25ZM2.8375 8.41855H4.95C5.83125 8.41855 6.5375 9.13168 6.5375 10.0192V12.1498C6.5375 13.0311 5.83125 13.7498 4.95 13.7498H2.8375C1.9625 13.7498 1.25 13.0311 1.25 12.1498V10.0192C1.25 9.13168 1.9625 8.41855 2.8375 8.41855ZM12.1626 1.25H10.0501C9.16884 1.25 8.46259 1.96875 8.46259 2.85063V4.98125C8.46259 5.86875 9.16884 6.58125 10.0501 6.58125H12.1626C13.0376 6.58125 13.7501 5.86875 13.7501 4.98125V2.85063C13.7501 1.96875 13.0376 1.25 12.1626 1.25ZM10.0501 8.41855H12.1626C13.0376 8.41855 13.7501 9.13168 13.7501 10.0192V12.1498C13.7501 13.0311 13.0376 13.7498 12.1626 13.7498H10.0501C9.16884 13.7498 8.46259 13.0311 8.46259 12.1498V10.0192C8.46259 9.13168 9.16884 8.41855 10.0501 8.41855Z" fill="#54439D"/>
</g>
</g>
</svg>
