<svg width="17" height="17" viewBox="0 0 17 17" fill="none" xmlns="http://www.w3.org/2000/svg">
<g id="Iconly/Bold/Heart">
<g id="Heart">
<path id="Heart_2" fill-rule="evenodd" clip-rule="evenodd" d="M11.2269 1.77111C11.6739 1.77111 12.1201 1.83415 12.5444 1.97653C15.1589 2.82653 16.101 5.69528 15.314 8.20278C14.8678 9.48415 14.1382 10.6536 13.1826 11.6092C11.8148 12.9337 10.3139 14.1096 8.69818 15.1225L8.5211 15.2294L8.33693 15.1154C6.71556 14.1096 5.2061 12.9337 3.82556 11.6021C2.87639 10.6465 2.1461 9.48415 1.69277 8.20278C0.892349 5.69528 1.83443 2.82653 4.47722 1.96165C4.68264 1.89082 4.89443 1.84123 5.10693 1.81361H5.19193C5.39097 1.78457 5.5886 1.77111 5.78693 1.77111H5.86485C6.3111 1.78457 6.74318 1.86248 7.16181 2.00486H7.2036C7.23193 2.01832 7.25318 2.03319 7.26735 2.04665C7.42389 2.09694 7.57193 2.15361 7.7136 2.23153L7.98277 2.35194C8.04781 2.38663 8.12081 2.43963 8.1839 2.48544C8.22388 2.51447 8.25988 2.5406 8.28735 2.55736C8.29891 2.56418 8.31066 2.57104 8.3225 2.57795C8.38324 2.6134 8.4465 2.65034 8.49985 2.69123C9.28681 2.08986 10.2423 1.76403 11.2269 1.77111ZM13.1112 6.87111C13.4016 6.86332 13.6495 6.63028 13.6707 6.33207V6.24778C13.692 5.2554 13.0906 4.35653 12.1762 4.00944C11.8857 3.90957 11.567 4.06611 11.4607 4.36361C11.3616 4.66111 11.5174 4.98694 11.8149 5.09248C12.269 5.26248 12.5728 5.70944 12.5728 6.20457V6.22653C12.5594 6.38873 12.6082 6.54528 12.7074 6.66569C12.8066 6.78611 12.9553 6.85623 13.1112 6.87111Z" fill="#503E9D"/>
</g>
</g>
</svg>
