<svg width="15" height="15" viewBox="0 0 15 15" fill="none" xmlns="http://www.w3.org/2000/svg">
<g id="Iconly/Bold/Search">
<g id="Search">
<path id="Search_2" fill-rule="evenodd" clip-rule="evenodd" d="M1.25 6.6687C1.25 3.67604 3.65021 1.25 6.61102 1.25C8.03286 1.25 9.39645 1.8209 10.4018 2.8371C11.4072 3.85331 11.972 5.23157 11.972 6.6687C11.972 9.66137 9.57184 12.0874 6.61102 12.0874C3.65021 12.0874 1.25 9.66137 1.25 6.6687ZM11.8833 11.0339L13.48 12.3228H13.5077C13.8307 12.6493 13.8307 13.1786 13.5077 13.5051C13.1847 13.8316 12.6609 13.8316 12.3379 13.5051L11.0129 11.9866C10.8876 11.8604 10.8172 11.689 10.8172 11.5102C10.8172 11.3315 10.8876 11.1601 11.0129 11.0339C11.2545 10.794 11.6417 10.794 11.8833 11.0339Z" fill="#54439D"/>
</g>
</g>
</svg>
